<svg class="svg-logo-desktop" xmlns="http://www.w3.org/2000/svg" viewBox="-540 381.7 206.9 39.3"><path d="M-525.8 399.9h9c-1.2 4.1-5 7.2-9.5 7.2-5.4 0-9.9-4.4-9.9-9.9 0-5.4 4.4-9.9 9.9-9.9 4.1 0 7.6 2.5 9.1 6.1h2.7c-1.6-5-6.3-8.6-11.8-8.6-6.8 0-12.4 5.6-12.4 12.4s5.6 12.4 12.4 12.4c3.9 0 7.5-2 9.6-4.8v4.3h2.3v-11.7h-11.4v2.5zM-510.2 385.6h2.5V409h-2.5zM-437.3 385.6h2.5V409h-2.5zM-494.8 407.4c-3.8 0-6.9-3.3-6.9-7 0-3.8 3.1-7 6.9-7 3.8 0 6.9 3.2 6.9 7-.1 3.7-3.2 7-6.9 7m0-16.5c-5.2 0-9.4 4.2-9.4 9.4s4.2 9.4 9.4 9.4 9.4-4.2 9.4-9.4c-.1-5.2-4.3-9.4-9.4-9.4M-473.2 407.4c-3.8 0-6.9-3.3-6.9-7 0-3.8 3.1-7 6.9-7 3.8 0 6.9 3.2 6.9 7-.1 3.7-3.1 7-6.9 7m.1-16.6c-2.8 0-5.3 1.2-7 3.2v-8.4h-2.5V409h2.5v-2.3c1.7 1.9 4.2 3.1 7 3.1 5.2 0 9.4-4.3 9.4-9.5 0-5.3-4.2-9.5-9.4-9.5M-451 407.4c-3.8 0-6.9-3.3-6.9-7 0-3.8 3.1-7 6.9-7s6.9 3.2 6.9 7c0 3.7-3.1 7-6.9 7m6.9-13.4c-1.7-2-4.3-3.2-7.1-3.2-5.3 0-9.5 4.3-9.5 9.5 0 5.3 4.3 9.5 9.5 9.5 2.8 0 5.4-1.2 7.1-3.2v2.4h2.5v-17.1h-2.5v2.1zM-369.8 383.2h4.4v4.1h-4.4zM-426 385.6h-4V409h13.1v-3.7h-9.1zM-369.8 390.6h4.4V409h-4.4zM-405.7 405.8c-2.9 0-5.3-2.5-5.3-5.7 0-3.1 2.4-5.7 5.3-5.7s5.3 2.5 5.3 5.7-2.4 5.7-5.3 5.7m0-15.3c-5.3 0-9.6 4.3-9.6 9.6s4.3 9.6 9.6 9.6 9.6-4.3 9.6-9.6-4.3-9.6-9.6-9.6M-347.2 402.7c-.9 1.9-2.7 3.1-4.7 3.1-2.9 0-5.3-2.6-5.3-5.7 0-3.4 2.4-5.7 5.3-5.7 2 0 3.7 1.2 4.6 2.9h4.6c-1.2-3.9-4.9-6.8-9.2-6.8-5.3 0-9.6 4.3-9.6 9.6s4.3 9.6 9.6 9.6c4.4 0 8.2-3 9.3-7.1h-4.6v.1zM-384.4 415.4c-2 0-3.8-1-5-2.6l-3.9 1.9c1.8 2.9 4.9 4.8 8.9 4.8 5.1 0 9.3-4.1 9.7-9h-4.3c-.4 2.8-2.6 4.9-5.4 4.9M-384.2 405.9c-2.9 0-5.3-2.5-5.3-5.7 0-3.1 2.4-5.7 5.3-5.7s5.3 2.5 5.3 5.7-2.3 5.7-5.3 5.7m5.7-13.4c-1.6-1.1-3.5-1.8-5.6-1.8-5.3 0-9.6 4.3-9.6 9.6s4.3 9.6 9.6 9.6 9.6-4.3 9.6-9.5v-9.8h-4v1.9z"/><g><path d="M-339.1 387.4c0-1.6 1.1-2.6 2.6-2.6s2.6 1.1 2.6 2.6-1.1 2.6-2.6 2.6-2.6-1.1-2.6-2.6zm4.8 0c0-1.4-.9-2.3-2.2-2.3-1.2 0-2.2.9-2.2 2.3s.9 2.3 2.2 2.3c1.2-.1 2.2-1 2.2-2.3zm-3.3-1.4h1.2c.5 0 .9.3.9.8 0 .3-.2.6-.5.6.3.1.4.2.4.6 0 .4 0 .6.1.7h-.5c-.1 0-.1-.3-.1-.6s-.2-.5-.5-.5h-.5v1.1h-.5V386zm.7 1.2h.6c.3 0 .5-.2.5-.4s-.1-.4-.4-.4h-.6v.8h-.1z"/></g></svg>