<svg id="Layer_1" data-name="Layer 1" xmlns="http://www.w3.org/2000/svg" viewBox="0 0 360.11 90"><defs><style>.cls-1{fill:#363636}</style></defs><title>GP_Logo_2016</title><path class="cls-1" d="M28.84 16.82l.06 17.92 19.01-1.27V0L0 10.92v68.12L47.88 90V77.09l.03-26.38-18.88-.73-6.89-.32.09 11.9 7.01.5-.16 11.71-15.7-2.78V19.18l15.46-2.36z"/><path class="cls-1" d="M74.23 4.37L55.78 0v90l18.45-3.74V62.31l29.43-2.49v-49zm15.86 45.86l-15.86-.17V16.91l16.1 2.25h.16zM152.13 52.27c9.63 0 15.17 4.73 15.17 13.13 0 8.82-5.54 13.94-15.17 13.94h-6.83v10.6h-9.58V52.27h16.41zm-6.84 19.53h6.35c4.2 0 6.62-2.1 6.62-6.08s-2.42-5.92-6.62-5.92h-6.35v12zM177.53 83l-2.74 6.94h-9.85l16.25-37.67H191l15.87 37.67h-10.19L194 83h-16.47zm8.29-21.2l-5.49 13.94h10.87zM227 79.33h-7.53v10.6h-9.58V52.27h16.84c10 0 15.66 4.73 15.66 13.13 0 5.76-2.42 9.9-6.83 12.11l7.91 12.43h-10.9zm-.27-7.53c4.14 0 6.56-2.1 6.56-6.08s-2.42-5.92-6.56-5.92h-7.26v12h7.26zM256.85 83l-2.74 6.94h-9.85l16.24-37.67h9.85l15.87 37.67H276L273.31 83h-16.46zm8.29-21.2l-5.49 13.94h10.87zM305.38 52.27c11.84 0 20 7.64 20 18.83S317.11 89.93 305 89.93h-15.81V52.27h16.2zm-6.62 30h6.83c5.87 0 10.06-4.52 10.06-11.14s-4.41-11.25-10.49-11.25h-6.4v22.41zM339.5 59.8v7.48h18v7.53h-18v7.59H360v7.53h-30.08V52.27h29.49v7.53H339.5zM173.51 21.53v16.75a33.74 33.74 0 0 1-17.85 5.58c-13.06 0-22.94-9.45-22.94-22S142.84.07 156.4.07a27.44 27.44 0 0 1 17.54 6.38l-6.13 7.42a17.62 17.62 0 0 0-11.47-4.66 12.36 12.36 0 0 0-12.45 12.7 12.46 12.46 0 0 0 12.57 12.82 18.25 18.25 0 0 0 7.61-2.09V21.53h9.45zM200 31.29h-8.59v12.08h-10.9V.44h19.2c11.35 0 17.85 5.4 17.85 15 0 6.56-2.76 11.29-7.79 13.8l9 14.17h-12.38zm-.3-8.59c4.72 0 7.48-2.39 7.48-6.93S204.43 9 199.7 9h-8.28v13.7h8.28zM234.05 35.46l-3.13 7.91H219.7L238.22.44h11.22l18.09 42.93h-11.64l-3.07-7.91h-18.77zm9.45-24.17l-6.26 15.89h12.39zM300.91 43.37l-19.75-26.44v26.44h-10.24V.44h9.63l19.81 26.5V.44h10.18v42.93h-9.63zM337 .44c13.49 0 22.82 8.71 22.82 21.47s-9.45 21.47-23.25 21.47h-18V.44H337zm-7.54 34.22h7.79c6.68 0 11.47-5.15 11.47-12.7s-5-12.82-12-12.82h-7.3v25.52z" transform="translate(.11)"/></svg>