<svg xmlns="http://www.w3.org/2000/svg" viewBox="0 0 1350 900" height="900" width="1350"><defs><clipPath id="a"><path d="M0 720h1080V0H0v720z"/></clipPath></defs><g clip-path="url(#a)" transform="matrix(1.25 0 0 -1.25 0 900)"><path d="M854.326 341.014l.593 2.793c1.763 9.267-2.689 16.292-12.408 16.292-8.956 0-16.587-6.426-19.279-19.085h31.094m42.935-36.286c-8.943-25.396-33.546-42.068-73.904-42.068-33.59 0-65.973 19.545-57.98 64.296 6.686 37.673 41.291 62.778 80.874 62.778 44.33 0 63.688-30.444 56.5-65.924l-1.728-8.128H817.76c-.263-.935-1.316-4.811-1.316-9.057 0-10.644 5.65-14.365 12.83-14.365 7.434 0 13.818 4.144 17.33 12.468h50.657zM757.67 387.62c-12.77 0-22.988-7.354-29.898-16.833h-1.048l1.783 15.378h-53.593l-3.266-15.6 29.584 3.088-.655-2.952-30.028-4.869-21.137-99.583h57.801s5.968 28.61 9.608 45.374c5.821 26.734 20.482 32.777 30.257 32.777 8.253 0 13.397-3.718 14.68-4.759l9.467 44.57c-.917.518-5.848 3.408-13.555 3.408M233.993 295.155l5.072 24.37h-65.598c-4.548-41.27 27.857-57.812 69.418-57.812 39.889 0 82.076 13.316 91.47 49.717l-100.362-16.275m-2.178 41.208c-23.256 7.364-40.808 21.056-40.808 47.015 0 37.974 37.901 59.715 88.626 59.829 42.969.16 71.413-17.751 66.397-53.473l-61.146.005c2.155 9.76-3.455 15.299-13.919 15.299-8.136 0-14.423-4.206-15.426-9.142-1.419-7.074 3.1-11.525 14.063-14.497 9.246-2.523 15.555-4.201 24.642-6.793 25.862-7.404 38.231-22.843 41.434-39.002l-76.844-7.93-27.019 8.689zM571.36 349.815c-3.763-5.039-6.798-12.325-9.2-23.296-5.15-23.736.45-29.94 7.46-29.94 9.365 0 17.282 8.9 21.177 29.592 2.491 13.184 2.114 22.663-1.46 26.55l57.937 9.382c2.843-9.187 3.305-20.999.592-34.463-8.487-42.624-34.57-64.98-63.693-64.98-13.185 0-27.578 3.436-33.568 17.471h-1.226l-4.692-13.88h-52.436l15.567 73.275 63.541 10.29m3.135 27.605c4.555 3.711 15.795 12.312 32.992 12.312 17.466 0 30.883-7.588 37.581-21.916l-134.204-13.974 18.03 84.872h57.804l-13.02-61.294h.817zM345.356 313.214c-1.623-4.635-2.393-9.805-2.393-15.397 0-18.845 14.147-35.158 37.719-35.158 21.62 0 33.99 9.053 39.623 15.07h.753l-1.107-11.479h54.265l13.378 62.417c.546 2.701.981 5.291 1.255 7.751l-143.493-23.204m66.624 36.43c1.563 7.439 7.236 13.338 14.44 13.338 7.336 0 10.335-6.229 9.035-12.562l-.936-4.555 54.154 5.67c-4.1 27.659-29.956 39.669-59.978 39.669-44.735 0-66.117-22.237-70.33-41.908l-.593-2.788h53.581l.626 3.136zm14.64-41.121c-1.72-9.103-7.901-16.263-16.588-16.263-8.172 0-11.891 6.703-10.334 14.023 1.327 6.155 7.735 12.307 19.643 12.307h9.416l-2.137-10.067zM906.699 276.557h1.543c1.758 0 3.26.642 3.26 2.295 0 1.172-.871 2.351-3.26 2.351a9.6 9.6 0 0 1-1.543-.115v-4.53zm0-7.409h-2.13v13.375c1.116.167 2.173.323 3.775.323 2.028 0 3.357-.42 4.172-1.016.785-.578 1.215-1.493 1.215-2.765 0-1.757-1.172-2.828-2.616-3.25v-.108c1.173-.215 1.974-1.279 2.245-3.252.314-2.079.643-2.88.859-3.307h-2.248c-.326.427-.642 1.657-.9 3.414-.326 1.71-1.185 2.351-2.884 2.351h-1.488v-5.765zm2.229 17.107c-5.273 0-9.59-4.524-9.59-10.12 0-5.702 4.317-10.19 9.648-10.19 5.332-.05 9.59 4.488 9.59 10.133 0 5.653-4.258 10.177-9.59 10.177h-.058zm.058 1.865c6.562 0 11.777-5.324 11.777-11.985 0-6.768-5.215-12.056-11.835-12.056-6.545 0-11.876 5.288-11.876 12.056 0 6.661 5.33 11.985 11.876 11.985h.058z" fill="#e51d25"/></g></svg>