<svg id="Layer_1" data-name="Layer 1" xmlns="http://www.w3.org/2000/svg" viewBox="0 0 360.11 90"><defs><style>.cls-1{fill:#363636;}</style></defs><title>GP_Logo_2016</title><polygon class="cls-1" points="28.84 16.82 28.9 34.74 47.91 33.47 47.91 0 0 10.92 0 79.04 47.88 90 47.88 77.09 47.91 50.71 29.03 49.98 22.14 49.66 22.23 61.56 29.24 62.06 29.08 73.77 13.38 70.99 13.38 19.18 28.84 16.82"/><path class="cls-1" d="M74.23,4.37L55.78,0V90l18.45-3.74V62.31l29.43-2.49v-49ZM90.09,50.23l-15.86-.17V16.91l16.1,2.25,0.16,0Z" transform="translate(0.11)"/><path class="cls-1" d="M152.13,52.27c9.63,0,15.17,4.73,15.17,13.13,0,8.82-5.54,13.94-15.17,13.94h-6.83v10.6h-9.58V52.27h16.41ZM145.29,71.8h6.35c4.2,0,6.62-2.1,6.62-6.08s-2.42-5.92-6.62-5.92h-6.35v12Z" transform="translate(0.11)"/><path class="cls-1" d="M177.53,83l-2.74,6.94h-9.85l16.25-37.67H191l15.87,37.67H196.68L194,83H177.53Zm8.29-21.2-5.49,13.94h10.87Z" transform="translate(0.11)"/><path class="cls-1" d="M227,79.33h-7.53v10.6h-9.58V52.27h16.84c10,0,15.66,4.73,15.66,13.13,0,5.76-2.42,9.9-6.83,12.11l7.91,12.43H232.57Zm-0.27-7.53c4.14,0,6.56-2.1,6.56-6.08s-2.42-5.92-6.56-5.92h-7.26v12h7.26Z" transform="translate(0.11)"/><path class="cls-1" d="M256.85,83l-2.74,6.94h-9.85L260.5,52.27h9.85l15.87,37.67H276L273.31,83H256.85Zm8.29-21.2-5.49,13.94h10.87Z" transform="translate(0.11)"/><path class="cls-1" d="M305.38,52.27c11.84,0,20,7.64,20,18.83S317.11,89.93,305,89.93H289.19V52.27h16.2Zm-6.62,30h6.83c5.87,0,10.06-4.52,10.06-11.14s-4.41-11.25-10.49-11.25h-6.4V82.29Z" transform="translate(0.11)"/><path class="cls-1" d="M339.5,59.8v7.48h18v7.53h-18V82.4H360v7.53H329.92V52.27h29.49V59.8H339.5Z" transform="translate(0.11)"/><path class="cls-1" d="M173.51,21.53V38.28a33.74,33.74,0,0,1-17.85,5.58c-13.06,0-22.94-9.45-22.94-22S142.84,0.07,156.4.07a27.44,27.44,0,0,1,17.54,6.38l-6.13,7.42a17.62,17.62,0,0,0-11.47-4.66,12.36,12.36,0,0,0-12.45,12.7,12.46,12.46,0,0,0,12.57,12.82,18.25,18.25,0,0,0,7.61-2.09V21.53h9.45Z" transform="translate(0.11)"/><path class="cls-1" d="M200,31.29h-8.59V43.37H180.51V0.44h19.2c11.35,0,17.85,5.4,17.85,15,0,6.56-2.76,11.29-7.79,13.8l9,14.17H206.39ZM199.7,22.7c4.72,0,7.48-2.39,7.48-6.93S204.43,9,199.7,9h-8.28V22.7h8.28Z" transform="translate(0.11)"/><path class="cls-1" d="M234.05,35.46l-3.13,7.91H219.7L238.22,0.44h11.22l18.09,42.93H255.89l-3.07-7.91H234.05Zm9.45-24.17-6.26,15.89h12.39Z" transform="translate(0.11)"/><path class="cls-1" d="M300.91,43.37L281.16,16.93V43.37H270.92V0.44h9.63l19.81,26.5V0.44h10.18V43.37h-9.63Z" transform="translate(0.11)"/><path class="cls-1" d="M337,0.44c13.49,0,22.82,8.71,22.82,21.47s-9.45,21.47-23.25,21.47h-18V0.44H337Zm-7.54,34.22h7.79c6.68,0,11.47-5.15,11.47-12.7s-5-12.82-12-12.82h-7.3V34.66Z" transform="translate(0.11)"/></svg>