<?xml version="1.0" encoding="UTF-8" standalone="no"?>
<svg
   xmlns:dc="http://purl.org/dc/elements/1.1/"
   xmlns:cc="http://creativecommons.org/ns#"
   xmlns:rdf="http://www.w3.org/1999/02/22-rdf-syntax-ns#"
   xmlns:svg="http://www.w3.org/2000/svg"
   xmlns="http://www.w3.org/2000/svg"
   viewBox="0 0 1350 900"
   height="900"
   width="1350"
   xml:space="preserve"
   version="1.1"
   id="svg4155"><metadata
     id="metadata4161"><rdf:RDF><cc:Work
         rdf:about=""><dc:format>image/svg+xml</dc:format><dc:type
           rdf:resource="http://purl.org/dc/dcmitype/StillImage" /><dc:title></dc:title></cc:Work></rdf:RDF></metadata><defs
     id="defs4159"><clipPath
       id="clipPath4169"
       clipPathUnits="userSpaceOnUse"><path
         id="path4171"
         d="M 0,720 1080,720 1080,0 0,0 0,720 Z" /></clipPath></defs><g
     transform="matrix(1.25,0,0,-1.25,0,900)"
     id="g4163"><g
       id="g4165"><g
         clip-path="url(#clipPath4169)"
         id="g4167"><g
           transform="translate(854.3264,341.0137)"
           id="g4173"><path
             id="path4175"
             style="fill:#e51d25;fill-opacity:1;fill-rule:nonzero;stroke:none"
             d="M 0,0 0.593,2.793 C 2.356,12.06 -2.096,19.085 -11.815,19.085 -20.771,19.085 -28.402,12.659 -31.094,0 L 0,0 m 42.935,-36.286 c -8.943,-25.396 -33.546,-42.068 -73.904,-42.068 -33.591,0 -65.973,19.545 -57.981,64.296 6.687,37.673 41.292,62.778 80.875,62.778 44.33,0 63.688,-30.444 56.499,-65.924 l -1.727,-8.128 -83.263,0 c -0.263,-0.935 -1.316,-4.811 -1.316,-9.057 0,-10.644 5.649,-14.365 12.83,-14.365 7.434,0 13.818,4.144 17.33,12.468 l 50.657,0 z" /></g><g
           transform="translate(757.67,387.6194)"
           id="g4177"><path
             id="path4179"
             style="fill:#e51d25;fill-opacity:1;fill-rule:nonzero;stroke:none"
             d="m 0,0 c -12.77,0 -22.988,-7.353 -29.898,-16.832 l -1.048,0 1.783,15.378 -53.593,0 -3.266,-15.601 29.584,3.089 -0.655,-2.952 -30.028,-4.869 -21.137,-99.583 57.801,0 c 0,0 5.968,28.61 9.608,45.374 5.821,26.734 20.482,32.777 30.257,32.777 8.253,0 13.397,-3.718 14.68,-4.759 l 9.467,44.569 C 12.638,-2.89 7.707,0 0,0" /></g><g
           transform="translate(233.993,295.1547)"
           id="g4181"><path
             id="path4183"
             style="fill:#e51d25;fill-opacity:1;fill-rule:nonzero;stroke:none"
             d="m 0,0 5.072,24.37 -65.598,0 c -4.548,-41.27 27.857,-57.812 69.418,-57.812 39.889,0 82.076,13.316 91.47,49.717 L 0,0 m -2.178,41.208 c -23.256,7.364 -40.808,21.056 -40.808,47.015 0,37.974 37.901,59.715 88.626,59.829 42.969,0.16 71.413,-17.751 66.397,-53.473 l -61.146,0.005 c 2.155,9.76 -3.455,15.299 -13.919,15.299 -8.136,0 -14.423,-4.206 -15.426,-9.142 -1.419,-7.074 3.1,-11.525 14.063,-14.497 9.246,-2.523 15.555,-4.201 24.642,-6.793 25.862,-7.404 38.231,-22.843 41.434,-39.002 L 24.841,32.52 -2.178,41.208 Z" /></g><g
           transform="translate(571.3591,349.8152)"
           id="g4185"><path
             id="path4187"
             style="fill:#e51d25;fill-opacity:1;fill-rule:nonzero;stroke:none"
             d="m 0,0 c -3.762,-5.039 -6.797,-12.325 -9.199,-23.296 -5.15,-23.736 0.449,-29.94 7.46,-29.94 9.365,0 17.282,8.899 21.177,29.592 2.491,13.184 2.114,22.663 -1.46,26.549 l 57.937,9.383 C 78.758,3.101 79.22,-8.711 76.507,-22.175 68.02,-64.799 41.936,-87.156 12.814,-87.156 c -13.185,0 -27.578,3.437 -33.568,17.472 l -1.226,0 -4.692,-13.881 -52.436,0 15.567,73.276 L 0,0 m 3.135,27.606 c 4.555,3.711 15.795,12.312 32.992,12.312 17.466,0 30.883,-7.588 37.581,-21.916 L -60.496,4.028 -42.467,88.9 l 57.805,0 -13.02,-61.294 0.817,0 z" /></g><g
           transform="translate(345.3555,313.214)"
           id="g4189"><path
             id="path4191"
             style="fill:#e51d25;fill-opacity:1;fill-rule:nonzero;stroke:none"
             d="m 0,0 c -1.623,-4.635 -2.393,-9.805 -2.393,-15.397 0,-18.845 14.147,-35.158 37.719,-35.158 21.621,0 33.991,9.053 39.623,15.07 l 0.753,0 -1.107,-11.479 54.266,0 13.378,62.417 c 0.546,2.701 0.981,5.291 1.255,7.751 L 0,0 m 66.624,36.43 c 1.563,7.439 7.236,13.338 14.441,13.338 7.336,0 10.335,-6.229 9.035,-12.562 l -0.937,-4.555 54.154,5.67 C 139.217,65.98 113.362,77.99 83.339,77.99 38.604,77.99 17.222,55.753 13.01,36.082 l -0.593,-2.788 53.581,0 0.626,3.136 z m 14.64,-41.121 c -1.72,-9.103 -7.901,-16.263 -16.588,-16.263 -8.172,0 -11.891,6.703 -10.334,14.023 1.327,6.155 7.735,12.307 19.643,12.307 l 9.416,0 -2.137,-10.067 z" /></g><g
           transform="translate(906.6987,276.5572)"
           id="g4193"><path
             id="path4195"
             style="fill:#e51d25;fill-opacity:1;fill-rule:nonzero;stroke:none"
             d="m 0,0 1.543,0 c 1.758,0 3.26,0.642 3.26,2.295 0,1.172 -0.871,2.351 -3.26,2.351 C 0.844,4.646 0.371,4.588 0,4.531 L 0,0 Z m 0,-7.409 -2.13,0 0,13.375 c 1.116,0.167 2.173,0.323 3.775,0.323 2.028,0 3.357,-0.42 4.172,-1.016 C 6.602,4.695 7.032,3.78 7.032,2.508 7.032,0.751 5.86,-0.32 4.416,-0.743 l 0,-0.107 C 5.589,-1.065 6.39,-2.129 6.661,-4.102 6.975,-6.181 7.304,-6.982 7.52,-7.409 l -2.248,0 C 4.946,-6.982 4.63,-5.752 4.373,-3.995 4.046,-2.286 3.187,-1.644 1.488,-1.644 L 0,-1.644 0,-7.409 Z M 2.229,9.698 c -5.273,0 -9.589,-4.524 -9.589,-10.12 0,-5.702 4.316,-10.191 9.647,-10.191 5.332,-0.05 9.591,4.489 9.591,10.134 0,5.653 -4.259,10.177 -9.591,10.177 l -0.058,0 z m 0.058,1.865 c 6.562,0 11.777,-5.324 11.777,-11.985 0,-6.768 -5.215,-12.056 -11.835,-12.056 -6.545,0 -11.876,5.288 -11.876,12.056 0,6.661 5.331,11.985 11.876,11.985 l 0.058,0 z" /></g></g></g></g></svg>