<?xml version="1.0" encoding="UTF-8" standalone="no"?>
<!DOCTYPE svg PUBLIC "-//W3C//DTD SVG 1.1//EN"
"http://www.w3.org/Graphics/SVG/1.1/DTD/svg11.dtd">


<!-- Page 1 -->
<svg x="0" y="0" width="625" height="533" viewBox="0 0 625 533" version="1.1" xmlns="http://www.w3.org/2000/svg" xmlns:xlink="http://www.w3.org/1999/xlink"
style="display: block;margin-left: auto;margin-right: auto;">
<defs>

<style type="text/css"><![CDATA[

.g1_1{
fill: #FFFFFF;
}
.g2_1{
fill: #53656E;
}
.g3_1{
fill: #80C241;
}


]]></style>

</defs>
<path d="M0,0
L0,533
L625,533
L625,0 Z " 
fill="#FFFFFF" stroke="none" />
<path fill-rule="evenodd" d="M1.5,1.5l622.1,0l0,530.4l-622.1,0Z" class="g1_1" />
<path fill-rule="evenodd" d="M88.8,358.5l4.8,0l6.1,20.1l6.2,-20.2l3.7,0l6.2,20.2l6.1,-20.1l4.6,0l-8.8,27.3l-3.8,0l-6.2,-19.5l-6.2,19.5l-3.9,0Z" class="g2_1" />
<path fill-rule="evenodd" d="M142.5,365.2l4.5,0l-7.5,21c-1.6,4.2,-3.2,5.8,-6.3,5.8c-1.8,0,-3.2,-0.5,-4.5,-1.3l1.5,-3.5c0.7,0.5,1.6,0.8,2.5,0.8c1.2,0,2,-0.6,2.7,-2.3l-7.9,-20.5l4.7,0l5.4,15.2Z" class="g2_1" />
<path fill-rule="evenodd" d="M149.7,382.4L160.8,369l-10.7,0l0,-3.8l16.2,0l0,3.2l-11,13.4l11,0l0,3.8l-16.6,0ZM155.8,358l0,0l4.5,0l0,4.6l-4.5,0Z" class="g2_1" />
<path fill-rule="evenodd" d="M169.3,383l1.9,-3.2c2.1,1.7,4.3,2.5,6.3,2.5c1.8,0,2.9,-0.8,2.9,-2.2l0,-0.1c0,-1.6,-2,-2.1,-4.2,-2.8c-2.8,-0.9,-6,-2.1,-6,-6.1c0,-3.9,3,-6.3,6.8,-6.3c2.4,0,5,0.9,7,2.3l-1.7,3.4c-1.9,-1.2,-3.8,-2,-5.4,-2c-1.7,0,-2.7,0.9,-2.7,2.1c0,1.6,2.1,2.2,4.3,2.9c2.8,1,5.9,2.3,5.9,6l0,0.1c0,4.3,-3.1,6.4,-7,6.4c-2.7,0,-5.7,-1,-8.1,-3Z" class="g2_1" />
<path fill-rule="evenodd" d="M187.7,382.4l11,-13.4l-10.6,0l0,-3.8l16.1,0l0,3.2l-11,13.4l11,0l0,3.8l-16.5,0Z" class="g2_1" />
<path fill-rule="evenodd" d="M207.5,379.7l0,0c0,-4.4,3.2,-6.6,7.9,-6.6c2.1,0,3.6,0.3,5.1,0.8l0,-0.5c0,-2.9,-1.7,-4.4,-4.7,-4.4c-2.2,0,-3.8,0.5,-5.5,1.3l-1.1,-3.7c2,-1,4.1,-1.7,7.1,-1.7c2.9,0,5,0.8,6.4,2.3c1.4,1.5,2,3.6,2,6.3l0,12.1l-4.3,0l0,-2.5c-1.2,1.6,-3.2,3,-6.2,3c-3.5,0,-6.7,-2.2,-6.7,-6.4Zm13.1,-1.4l0,0l0,-1.4c-1.2,-0.5,-2.6,-0.8,-4.4,-0.8c-2.8,0,-4.4,1.2,-4.4,3.4l0,0.1c0,1.9,1.6,3.1,3.7,3.1c2.9,0,5.1,-1.8,5.1,-4.4Z" class="g2_1" />
<path fill-rule="evenodd" d="M239.6,381.7l2.6,-3.4c2.5,2.2,4.9,3.5,8,3.5c2.8,0,4.5,-1.4,4.5,-3.4l0,-0.1c0,-1.9,-1,-3,-5.7,-4.1c-5.4,-1.4,-8.4,-3.1,-8.4,-8.1l0,-0.1c0,-4.7,3.6,-7.9,8.6,-7.9c3.7,0,6.6,1.2,9.2,3.4l-2.4,3.6c-2.3,-1.8,-4.5,-2.8,-6.9,-2.8c-2.6,0,-4.1,1.5,-4.1,3.3c0,2.1,1.2,3.1,6.1,4.3c5.3,1.4,8,3.5,8,7.9l0,0.1c0,5.1,-3.7,8.1,-9,8.1c-3.8,0,-7.5,-1.4,-10.5,-4.3Z" class="g2_1" />
<path fill-rule="evenodd" d="M262.8,382.4l11,-13.4l-10.6,0l0,-3.8l16.2,0l0,3.2l-11,13.4l11,0l0,3.8l-16.6,0Z" class="g2_1" />
<path fill-rule="evenodd" d="M283.9,357.3l4.4,0l0,16.9l7.9,-9l5.3,0l-7.6,8.3l7.8,12.1l-5.1,0L291,376.8l-2.7,3l0,5.8l-4.4,0Z" class="g2_1" />
<path fill-rule="evenodd" d="M303,375.5l0,-0.1c0,-5.8,4.3,-10.7,10.1,-10.7c5.9,0,10.2,4.8,10.2,10.7c0,5.9,-4.4,10.7,-10.2,10.7c-5.9,0,-10.1,-4.8,-10.1,-10.6Zm15.9,0l0,0l0,-0.1c0,-3.6,-2.4,-6.5,-5.8,-6.5c-3.5,0,-5.8,2.9,-5.8,6.5c0,3.6,2.4,6.6,5.8,6.6c3.6,0,5.8,-3,5.8,-6.5Z" class="g2_1" />
<path fill-rule="evenodd" d="M333.4,372.3l0,13.3l-4.4,0l0,-10.9l-2.7,1.5l0,-4.5l2.7,-1.5l0,-12.9l4.4,0l0,10.5l2.7,-1.5l0,4.5Z" class="g2_1" />
<path fill-rule="evenodd" d="M338.9,379.7l0,0c0,-4.4,3.2,-6.6,7.9,-6.6c2.1,0,3.6,0.3,5.1,0.8l0,-0.5c0,-2.9,-1.6,-4.4,-4.7,-4.4c-2.1,0,-3.7,0.5,-5.5,1.3l-1.1,-3.7c2.1,-1,4.1,-1.7,7.2,-1.7c2.8,0,5,0.8,6.3,2.3c1.4,1.5,2,3.6,2,6.3l0,12.1l-4.2,0l0,-2.5c-1.3,1.6,-3.3,3,-6.2,3c-3.6,0,-6.8,-2.2,-6.8,-6.4ZM352,378.3l0,0l0,-1.4c-1.1,-0.5,-2.6,-0.8,-4.3,-0.8c-2.9,0,-4.5,1.2,-4.5,3.4l0,0.1c0,1.9,1.6,3.1,3.7,3.1c2.9,0,5.1,-1.8,5.1,-4.4Z" class="g2_1" />
<path fill-rule="evenodd" d="M372.7,358.5l18.7,0l0,4.3l-14.3,0l0,7l12.7,0l0,4.3l-12.7,0l0,7.3l14.5,0l0,4.2l-18.9,0Z" class="g2_1" />
<path fill-rule="evenodd" d="M396.4,357.3l4.4,0l0,16.9l7.9,-9l5.3,0l-7.6,8.3l7.8,12.1l-5.1,0l-5.6,-8.8l-2.7,3l0,5.8l-4.4,0Z" class="g2_1" />
<path fill-rule="evenodd" d="M415.4,375.5l0,-0.1c0,-5.8,4.4,-10.7,10.2,-10.7c5.9,0,10.2,4.8,10.2,10.7c0,5.9,-4.4,10.7,-10.3,10.7c-5.8,0,-10.1,-4.8,-10.1,-10.6Zm16,0l0,0l0,-0.1c0,-3.6,-2.4,-6.5,-5.9,-6.5c-3.5,0,-5.7,2.9,-5.7,6.5c0,3.6,2.4,6.6,5.8,6.6c3.6,0,5.8,-3,5.8,-6.5Z" class="g2_1" />
<path fill-rule="evenodd" d="M440.2,365.2l4.4,0l0,3.1c1.2,-1.9,3,-3.6,5.9,-3.6c4.3,0,6.8,3.1,6.8,7.9l0,13l-4.4,0l0,-11.6c0,-3.2,-1.4,-5,-4,-5c-2.6,0,-4.3,1.9,-4.3,5.1l0,11.5l-4.4,0Z" class="g2_1" />
<path fill-rule="evenodd" d="M461.5,375.5l0,-0.1c0,-5.8,4.4,-10.7,10.2,-10.7c5.9,0,10.1,4.8,10.1,10.7c0,5.9,-4.3,10.7,-10.2,10.7c-5.8,0,-10.1,-4.8,-10.1,-10.6Zm16,0l0,0l0,-0.1c0,-3.6,-2.4,-6.5,-5.9,-6.5c-3.5,0,-5.7,2.9,-5.7,6.5c0,3.6,2.4,6.6,5.8,6.6c3.5,0,5.8,-3,5.8,-6.5Z" class="g2_1" />
<path fill-rule="evenodd" d="M486.3,365.2l4.4,0l0,3.1c1.2,-1.8,2.8,-3.6,5.8,-3.6c2.7,0,4.7,1.5,5.7,3.7c1.5,-2.2,3.5,-3.7,6.4,-3.7c4.1,0,6.7,2.9,6.7,7.9l0,13l-4.4,0l0,-11.6c0,-3.2,-1.4,-5,-3.9,-5c-2.3,0,-4,1.8,-4,5.1l0,11.5l-4.4,0l0,-11.6c0,-3.2,-1.5,-5,-3.9,-5c-2.4,0,-4,1.9,-4,5.1l0,11.5l-4.4,0Z" class="g2_1" />
<path fill-rule="evenodd" d="M520.6,357.6l4.7,0l0,4.4l-4.7,0Zm0.2,7.6l0,0l4.4,0l0,20.4l-4.4,0Z" class="g2_1" />
<path fill-rule="evenodd" d="M531,357.6l4.7,0l0,4.4l-4.7,0Zm0.1,7.6l0,0l4.4,0l0,20.4l-4.4,0Z" class="g2_1" />
<path fill-rule="evenodd" d="M90.8,410.2l4.7,0l0,4.4l-4.7,0Zm0.2,7.6l0,0l4.4,0l0,20.4l-4.4,0Z" class="g2_1" />
<path fill-rule="evenodd" d="M112.7,411.1l4.4,0l0,27.1l-4.4,0Z" class="g2_1" />
<path fill-rule="evenodd" d="M123.3,417.8l4.4,0l0,3.1c1.2,-1.9,3,-3.6,6,-3.6c4.3,0,6.8,3.1,6.8,7.9l0,13l-4.4,0l0,-11.6c0,-3.2,-1.5,-5,-4.1,-5c-2.5,0,-4.3,1.9,-4.3,5.1l0,11.5l-4.4,0Z" class="g2_1" />
<path fill-rule="evenodd" d="M146.7,421.8l-2.4,0l0,-3.9l2.4,0l0,-1.5c0,-2.3,0.5,-4,1.6,-5.1c1,-1.1,2.4,-1.6,4.2,-1.6c1.6,0,2.6,0.2,3.6,0.5l0,4c-0.9,-0.3,-1.6,-0.5,-2.6,-0.5c-1.6,0,-2.5,1,-2.5,3.1l0,1.1l5,0l0,3.9l-4.9,0l0,16.4l-4.4,0Z" class="g2_1" />
<path fill-rule="evenodd" d="M157.9,428.1l0,-0.1c0,-5.8,4.3,-10.7,10.2,-10.7c5.8,0,10.1,4.8,10.1,10.7c0,5.9,-4.3,10.7,-10.2,10.7c-5.8,0,-10.1,-4.8,-10.1,-10.6Zm15.9,0l0,0l0,-0.1c0,-3.6,-2.4,-6.5,-5.8,-6.5c-3.5,0,-5.7,2.9,-5.7,6.5c0,3.6,2.4,6.6,5.8,6.6c3.5,0,5.7,-3,5.7,-6.5Z" class="g2_1" />
<path fill-rule="evenodd" d="M182.6,417.8l4.4,0l0,4.6c1.2,-3.1,3.4,-5.2,6.8,-5l0,4.9l-0.3,0c-3.8,0,-6.5,2.7,-6.5,8.1l0,7.8l-4.4,0Z" class="g2_1" />
<path fill-rule="evenodd" d="M197.5,417.8l4.4,0l0,3.1c1.2,-1.9,2.9,-3.6,5.8,-3.6c2.8,0,4.7,1.5,5.7,3.6c1.5,-2.1,3.6,-3.6,6.5,-3.6c4.1,0,6.6,2.9,6.6,7.9l0,13l-4.3,0l0,-11.6c0,-3.3,-1.4,-5,-3.9,-5c-2.4,0,-4.1,1.8,-4.1,5.1l0,11.5l-4.3,0l0,-11.6c0,-3.2,-1.5,-5,-3.9,-5c-2.4,0,-4.1,1.9,-4.1,5.1l0,11.5l-4.4,0Z" class="g2_1" />
<path fill-rule="evenodd" d="M230.6,432.3l0,0c0,-4.5,3.2,-6.6,7.8,-6.6c2.2,0,3.7,0.3,5.2,0.8l0,-0.5c0,-2.9,-1.7,-4.4,-4.8,-4.4c-2.1,0,-3.7,0.5,-5.4,1.2l-1.2,-3.6c2.1,-1,4.2,-1.7,7.2,-1.7c2.9,0,5,0.8,6.3,2.3c1.4,1.5,2.1,3.6,2.1,6.3l0,12.1l-4.3,0l0,-2.5c-1.3,1.6,-3.3,3,-6.2,3c-3.6,0,-6.7,-2.2,-6.7,-6.4Zm13,-1.4l0,0l0,-1.4c-1.1,-0.5,-2.6,-0.8,-4.3,-0.8c-2.8,0,-4.5,1.2,-4.5,3.4c0,2,1.7,3.1,3.7,3.1c2.9,0,5.1,-1.7,5.1,-4.3Z" class="g2_1" />
<path fill-rule="evenodd" d="M253.7,432.6l0,-10.8l-2.4,0l0,-4l2.4,0l0,-5.7l4.4,0l0,5.7l5.1,0l0,4l-5.1,0l0,10c0,1.9,0.9,2.6,2.4,2.6c0.9,0,1.8,-0.2,2.7,-0.7l0,3.8c-1.1,0.7,-2.3,1.1,-4,1.1c-3.2,0,-5.5,-1.5,-5.5,-6Z" class="g2_1" />
<path fill-rule="evenodd" d="M280.9,417.8l4.5,0l-7.6,21c-1.5,4.2,-3.2,5.8,-6.2,5.8c-1.8,0,-3.2,-0.5,-4.5,-1.3l1.4,-3.5c0.8,0.5,1.7,0.8,2.6,0.8c1.2,0,2,-0.6,2.7,-2.3l-7.9,-20.5l4.7,0l5.3,15.2Z" class="g2_1" />
<path fill-rule="evenodd" d="M289.2,409.9l4.3,0l0,16.9l8,-9l5.3,0l-7.6,8.3l7.8,12.1l-5.1,0l-5.6,-8.8l-2.8,3l0,5.8l-4.3,0Z" class="g2_1" />
<path fill-rule="evenodd" d="M310.3,410.2l4.6,0l0,4.4l-4.6,0Zm0.1,7.6l0,0l4.4,0l0,20.4l-4.4,0Z" class="g2_1" />
<path fill-rule="evenodd" d="M329.7,417.8l4.5,0l3.8,14l4.3,-14.1l3.7,0l4.2,14.1l3.9,-14l4.4,0l-6.2,20.6l-3.9,0l-4.3,-14l-4.3,14l-3.9,0Z" class="g2_1" />
<path fill-rule="evenodd" d="M373.7,411.1l4.5,0l0,13.6l12,-13.6l5.5,0l-10.6,11.7l11,15.4l-5.4,0L382.1,426l-3.9,4.4l0,7.8l-4.5,0Z" class="g2_1" />
<path fill-rule="evenodd" d="M399.4,417.8l4.4,0l0,4.6c1.2,-3.1,3.4,-5.2,6.7,-5l0,4.9l-0.2,0c-3.8,0,-6.5,2.7,-6.5,8.1l0,7.8l-4.4,0Z" class="g2_1" />
<path fill-rule="evenodd" d="M412.2,432.3l0,0c0,-4.5,3.2,-6.6,7.8,-6.6c2.2,0,3.7,0.3,5.2,0.8l0,-0.5c0,-2.9,-1.7,-4.4,-4.8,-4.4c-2.1,0,-3.7,0.5,-5.4,1.2l-1.2,-3.6c2.1,-1,4.2,-1.7,7.2,-1.7c2.9,0,5,0.8,6.3,2.3c1.4,1.5,2.1,3.6,2.1,6.3l0,12.1l-4.3,0l0,-2.5c-1.3,1.6,-3.3,3,-6.2,3c-3.6,0,-6.7,-2.2,-6.7,-6.4Zm13,-1.4l0,0l0,-1.4c-1.1,-0.5,-2.6,-0.8,-4.3,-0.8c-2.8,0,-4.5,1.2,-4.5,3.4c0,2,1.7,3.1,3.7,3.1c2.9,0,5.1,-1.7,5.1,-4.3Z" class="g2_1" />
<path fill-rule="evenodd" d="M434.6,409.9l4.4,0l0,16.9l7.9,-9l5.3,0l-7.6,8.3l7.8,12.1l-5.1,0l-5.6,-8.8l-2.7,3l0,5.8l-4.4,0Z" class="g2_1" />
<path fill-rule="evenodd" d="M453.7,428.1l0,-0.1c0,-5.8,4.3,-10.7,10.2,-10.7c5.8,0,10.1,4.8,10.1,10.7c0,5.9,-4.3,10.7,-10.2,10.7c-5.8,0,-10.1,-4.8,-10.1,-10.6Zm15.9,0l0,0l0,-0.1c0,-3.6,-2.4,-6.5,-5.8,-6.5c-3.5,0,-5.8,2.9,-5.8,6.5c0,3.6,2.5,6.6,5.9,6.6c3.5,0,5.7,-3,5.7,-6.5Z" class="g2_1" />
<path fill-rule="evenodd" d="M475.9,417.8l4.5,0l3.8,14l4.3,-14.1l3.7,0l4.2,14.1l3.9,-14l4.4,0l-6.2,20.6l-3.9,0l-4.3,-14l-4.3,14l-3.9,0Z" class="g2_1" />
<path fill-rule="evenodd" d="M508.7,410.2l4.7,0l0,4.4l-4.7,0Zm0.2,7.6l0,0l4.3,0l0,20.4l-4.3,0Z" class="g2_1" />
<path fill-rule="evenodd" d="M517.9,428.1l0,-0.1c0,-5.9,3.8,-10.7,9.3,-10.7c6.1,0,9.1,5.2,9.1,11.1c0,0.4,0,0.8,-0.1,1.3l-14,0c0.5,3.3,2.7,5.2,5.5,5.2c2.2,0,3.7,-0.9,5.2,-2.5l2.6,2.5c-1.8,2.3,-4.3,3.8,-7.8,3.8c-5.6,0,-9.8,-4.3,-9.8,-10.6ZM532,426.6l0,0c-0.3,-3.1,-2,-5.4,-4.8,-5.4c-2.7,0,-4.6,2.2,-5,5.4Z" class="g2_1" />
<path fill-rule="evenodd" d="M228.2,88.8l-34.1,0l0,34.1l34.1,0Z" class="g3_1" />
<path fill-rule="evenodd" d="M200.5,146.6l0,55.5l55.5,0l0,-55.5Z" class="g3_1" />
<path fill-rule="evenodd" d="M430,205.1c-8.7,-8.9,-24.6,-24.2,-23.2,-34.5c4.2,-30.5,-13,-52.1,-41.9,-67.7C349.6,94.6,330.1,90.3,311.3,91.7l0,-0.3l-55.3,0l0,55.2l54.4,0l0,55.5l-54.4,0l0,55.3l54.9,0l0,52.1l54.8,0c0,0,5.3,-14.5,9.8,-20.1c5.6,-6.9,24.9,-3.5,34.8,-5.3c20.4,-3.9,6,-21.3,6.3,-24.4c0.5,-4.3,9.8,-4.8,6.3,-11.1c-1.2,-2.2,-2.3,-2.1,-5.1,-4.6c14.1,-8.6,-1.3,-10.7,1.8,-21c1.2,-4.2,18.4,-9.6,10.4,-17.9Z" class="g3_1" />

</svg>
