<svg width="625" height="533" viewBox="0 0 625 533" xmlns="http://www.w3.org/2000/svg" style="margin-left:auto;margin-right:auto" display="block"><defs><style>.g1_1{fill:#fff}.g2_1{fill:#53656e}.g3_1{fill:#80c241}</style></defs><path d="M0 0v533h625V0z" fill="#FFF"/><path fill-rule="evenodd" d="M1.5 1.5h622.1v530.4H1.5z" class="g1_1"/><path fill-rule="evenodd" d="M88.8 358.5h4.8l6.1 20.1 6.2-20.2h3.7l6.2 20.2 6.1-20.1h4.6l-8.8 27.3h-3.8l-6.2-19.5-6.2 19.5h-3.9zM142.5 365.2h4.5l-7.5 21c-1.6 4.2-3.2 5.8-6.3 5.8-1.8 0-3.2-.5-4.5-1.3l1.5-3.5c.7.5 1.6.8 2.5.8 1.2 0 2-.6 2.7-2.3l-7.9-20.5h4.7l5.4 15.2zM149.7 382.4l11.1-13.4h-10.7v-3.8h16.2v3.2l-11 13.4h11v3.8h-16.6zm6.1-24.4h4.5v4.6h-4.5zM169.3 383l1.9-3.2c2.1 1.7 4.3 2.5 6.3 2.5 1.8 0 2.9-.8 2.9-2.2v-.1c0-1.6-2-2.1-4.2-2.8-2.8-.9-6-2.1-6-6.1 0-3.9 3-6.3 6.8-6.3 2.4 0 5 .9 7 2.3l-1.7 3.4c-1.9-1.2-3.8-2-5.4-2-1.7 0-2.7.9-2.7 2.1 0 1.6 2.1 2.2 4.3 2.9 2.8 1 5.9 2.3 5.9 6v.1c0 4.3-3.1 6.4-7 6.4-2.7 0-5.7-1-8.1-3zM187.7 382.4l11-13.4h-10.6v-3.8h16.1v3.2l-11 13.4h11v3.8h-16.5zM207.5 379.7c0-4.4 3.2-6.6 7.9-6.6 2.1 0 3.6.3 5.1.8v-.5c0-2.9-1.7-4.4-4.7-4.4-2.2 0-3.8.5-5.5 1.3l-1.1-3.7c2-1 4.1-1.7 7.1-1.7 2.9 0 5 .8 6.4 2.3 1.4 1.5 2 3.6 2 6.3v12.1h-4.3v-2.5c-1.2 1.6-3.2 3-6.2 3-3.5 0-6.7-2.2-6.7-6.4zm13.1-1.4v-1.4c-1.2-.5-2.6-.8-4.4-.8-2.8 0-4.4 1.2-4.4 3.4v.1c0 1.9 1.6 3.1 3.7 3.1 2.9 0 5.1-1.8 5.1-4.4zM239.6 381.7l2.6-3.4c2.5 2.2 4.9 3.5 8 3.5 2.8 0 4.5-1.4 4.5-3.4v-.1c0-1.9-1-3-5.7-4.1-5.4-1.4-8.4-3.1-8.4-8.1v-.1c0-4.7 3.6-7.9 8.6-7.9 3.7 0 6.6 1.2 9.2 3.4l-2.4 3.6c-2.3-1.8-4.5-2.8-6.9-2.8-2.6 0-4.1 1.5-4.1 3.3 0 2.1 1.2 3.1 6.1 4.3 5.3 1.4 8 3.5 8 7.9v.1c0 5.1-3.7 8.1-9 8.1-3.8 0-7.5-1.4-10.5-4.3zM262.8 382.4l11-13.4h-10.6v-3.8h16.2v3.2l-11 13.4h11v3.8h-16.6zM283.9 357.3h4.4v16.9l7.9-9h5.3l-7.6 8.3 7.8 12.1h-5.1l-5.6-8.8-2.7 3v5.8h-4.4zM303 375.5v-.1c0-5.8 4.3-10.7 10.1-10.7 5.9 0 10.2 4.8 10.2 10.7 0 5.9-4.4 10.7-10.2 10.7-5.9 0-10.1-4.8-10.1-10.6zm15.9 0v-.1c0-3.6-2.4-6.5-5.8-6.5-3.5 0-5.8 2.9-5.8 6.5s2.4 6.6 5.8 6.6c3.6 0 5.8-3 5.8-6.5zM333.4 372.3v13.3H329v-10.9l-2.7 1.5v-4.5l2.7-1.5v-12.9h4.4v10.5l2.7-1.5v4.5zM338.9 379.7c0-4.4 3.2-6.6 7.9-6.6 2.1 0 3.6.3 5.1.8v-.5c0-2.9-1.6-4.4-4.7-4.4-2.1 0-3.7.5-5.5 1.3l-1.1-3.7c2.1-1 4.1-1.7 7.2-1.7 2.8 0 5 .8 6.3 2.3 1.4 1.5 2 3.6 2 6.3v12.1h-4.2v-2.5c-1.3 1.6-3.3 3-6.2 3-3.6 0-6.8-2.2-6.8-6.4zm13.1-1.4v-1.4c-1.1-.5-2.6-.8-4.3-.8-2.9 0-4.5 1.2-4.5 3.4v.1c0 1.9 1.6 3.1 3.7 3.1 2.9 0 5.1-1.8 5.1-4.4zM372.7 358.5h18.7v4.3h-14.3v7h12.7v4.3h-12.7v7.3h14.5v4.2h-18.9zM396.4 357.3h4.4v16.9l7.9-9h5.3l-7.6 8.3 7.8 12.1h-5.1l-5.6-8.8-2.7 3v5.8h-4.4zM415.4 375.5v-.1c0-5.8 4.4-10.7 10.2-10.7 5.9 0 10.2 4.8 10.2 10.7 0 5.9-4.4 10.7-10.3 10.7-5.8 0-10.1-4.8-10.1-10.6zm16 0v-.1c0-3.6-2.4-6.5-5.9-6.5-3.5 0-5.7 2.9-5.7 6.5s2.4 6.6 5.8 6.6c3.6 0 5.8-3 5.8-6.5zM440.2 365.2h4.4v3.1c1.2-1.9 3-3.6 5.9-3.6 4.3 0 6.8 3.1 6.8 7.9v13h-4.4V374c0-3.2-1.4-5-4-5s-4.3 1.9-4.3 5.1v11.5h-4.4zM461.5 375.5v-.1c0-5.8 4.4-10.7 10.2-10.7 5.9 0 10.1 4.8 10.1 10.7 0 5.9-4.3 10.7-10.2 10.7-5.8 0-10.1-4.8-10.1-10.6zm16 0v-.1c0-3.6-2.4-6.5-5.9-6.5-3.5 0-5.7 2.9-5.7 6.5s2.4 6.6 5.8 6.6c3.5 0 5.8-3 5.8-6.5zM486.3 365.2h4.4v3.1c1.2-1.8 2.8-3.6 5.8-3.6 2.7 0 4.7 1.5 5.7 3.7 1.5-2.2 3.5-3.7 6.4-3.7 4.1 0 6.7 2.9 6.7 7.9v13h-4.4V374c0-3.2-1.4-5-3.9-5-2.3 0-4 1.8-4 5.1v11.5h-4.4V374c0-3.2-1.5-5-3.9-5s-4 1.9-4 5.1v11.5h-4.4zM520.6 357.6h4.7v4.4h-4.7zm.2 7.6h4.4v20.4h-4.4zM531 357.6h4.7v4.4H531zm.1 7.6h4.4v20.4h-4.4zM90.8 410.2h4.7v4.4h-4.7zm.2 7.6h4.4v20.4H91zM112.7 411.1h4.4v27.1h-4.4zM123.3 417.8h4.4v3.1c1.2-1.9 3-3.6 6-3.6 4.3 0 6.8 3.1 6.8 7.9v13h-4.4v-11.6c0-3.2-1.5-5-4.1-5-2.5 0-4.3 1.9-4.3 5.1v11.5h-4.4zM146.7 421.8h-2.4v-3.9h2.4v-1.5c0-2.3.5-4 1.6-5.1 1-1.1 2.4-1.6 4.2-1.6 1.6 0 2.6.2 3.6.5v4c-.9-.3-1.6-.5-2.6-.5-1.6 0-2.5 1-2.5 3.1v1.1h5v3.9h-4.9v16.4h-4.4zM157.9 428.1v-.1c0-5.8 4.3-10.7 10.2-10.7 5.8 0 10.1 4.8 10.1 10.7 0 5.9-4.3 10.7-10.2 10.7-5.8 0-10.1-4.8-10.1-10.6zm15.9 0v-.1c0-3.6-2.4-6.5-5.8-6.5-3.5 0-5.7 2.9-5.7 6.5s2.4 6.6 5.8 6.6c3.5 0 5.7-3 5.7-6.5zM182.6 417.8h4.4v4.6c1.2-3.1 3.4-5.2 6.8-5v4.9h-.3c-3.8 0-6.5 2.7-6.5 8.1v7.8h-4.4zM197.5 417.8h4.4v3.1c1.2-1.9 2.9-3.6 5.8-3.6 2.8 0 4.7 1.5 5.7 3.6 1.5-2.1 3.6-3.6 6.5-3.6 4.1 0 6.6 2.9 6.6 7.9v13h-4.3v-11.6c0-3.3-1.4-5-3.9-5-2.4 0-4.1 1.8-4.1 5.1v11.5h-4.3v-11.6c0-3.2-1.5-5-3.9-5s-4.1 1.9-4.1 5.1v11.5h-4.4zM230.6 432.3c0-4.5 3.2-6.6 7.8-6.6 2.2 0 3.7.3 5.2.8v-.5c0-2.9-1.7-4.4-4.8-4.4-2.1 0-3.7.5-5.4 1.2l-1.2-3.6c2.1-1 4.2-1.7 7.2-1.7 2.9 0 5 .8 6.3 2.3 1.4 1.5 2.1 3.6 2.1 6.3v12.1h-4.3v-2.5c-1.3 1.6-3.3 3-6.2 3-3.6 0-6.7-2.2-6.7-6.4zm13-1.4v-1.4c-1.1-.5-2.6-.8-4.3-.8-2.8 0-4.5 1.2-4.5 3.4 0 2 1.7 3.1 3.7 3.1 2.9 0 5.1-1.7 5.1-4.3zM253.7 432.6v-10.8h-2.4v-4h2.4v-5.7h4.4v5.7h5.1v4h-5.1v10c0 1.9.9 2.6 2.4 2.6.9 0 1.8-.2 2.7-.7v3.8c-1.1.7-2.3 1.1-4 1.1-3.2 0-5.5-1.5-5.5-6zM280.9 417.8h4.5l-7.6 21c-1.5 4.2-3.2 5.8-6.2 5.8-1.8 0-3.2-.5-4.5-1.3l1.4-3.5c.8.5 1.7.8 2.6.8 1.2 0 2-.6 2.7-2.3l-7.9-20.5h4.7l5.3 15.2zM289.2 409.9h4.3v16.9l8-9h5.3l-7.6 8.3 7.8 12.1h-5.1l-5.6-8.8-2.8 3v5.8h-4.3zM310.3 410.2h4.6v4.4h-4.6zm.1 7.6h4.4v20.4h-4.4zM329.7 417.8h4.5l3.8 14 4.3-14.1h3.7l4.2 14.1 3.9-14h4.4l-6.2 20.6h-3.9l-4.3-14-4.3 14h-3.9zM373.7 411.1h4.5v13.6l12-13.6h5.5l-10.6 11.7 11 15.4h-5.4l-8.6-12.2-3.9 4.4v7.8h-4.5zM399.4 417.8h4.4v4.6c1.2-3.1 3.4-5.2 6.7-5v4.9h-.2c-3.8 0-6.5 2.7-6.5 8.1v7.8h-4.4zM412.2 432.3c0-4.5 3.2-6.6 7.8-6.6 2.2 0 3.7.3 5.2.8v-.5c0-2.9-1.7-4.4-4.8-4.4-2.1 0-3.7.5-5.4 1.2l-1.2-3.6c2.1-1 4.2-1.7 7.2-1.7 2.9 0 5 .8 6.3 2.3 1.4 1.5 2.1 3.6 2.1 6.3v12.1h-4.3v-2.5c-1.3 1.6-3.3 3-6.2 3-3.6 0-6.7-2.2-6.7-6.4zm13-1.4v-1.4c-1.1-.5-2.6-.8-4.3-.8-2.8 0-4.5 1.2-4.5 3.4 0 2 1.7 3.1 3.7 3.1 2.9 0 5.1-1.7 5.1-4.3zM434.6 409.9h4.4v16.9l7.9-9h5.3l-7.6 8.3 7.8 12.1h-5.1l-5.6-8.8-2.7 3v5.8h-4.4zM453.7 428.1v-.1c0-5.8 4.3-10.7 10.2-10.7 5.8 0 10.1 4.8 10.1 10.7 0 5.9-4.3 10.7-10.2 10.7-5.8 0-10.1-4.8-10.1-10.6zm15.9 0v-.1c0-3.6-2.4-6.5-5.8-6.5-3.5 0-5.8 2.9-5.8 6.5s2.5 6.6 5.9 6.6c3.5 0 5.7-3 5.7-6.5zM475.9 417.8h4.5l3.8 14 4.3-14.1h3.7l4.2 14.1 3.9-14h4.4l-6.2 20.6h-3.9l-4.3-14-4.3 14h-3.9zM508.7 410.2h4.7v4.4h-4.7zm.2 7.6h4.3v20.4h-4.3zM517.9 428.1v-.1c0-5.9 3.8-10.7 9.3-10.7 6.1 0 9.1 5.2 9.1 11.1 0 .4 0 .8-.1 1.3h-14c.5 3.3 2.7 5.2 5.5 5.2 2.2 0 3.7-.9 5.2-2.5l2.6 2.5c-1.8 2.3-4.3 3.8-7.8 3.8-5.6 0-9.8-4.3-9.8-10.6zm14.1-1.5c-.3-3.1-2-5.4-4.8-5.4-2.7 0-4.6 2.2-5 5.4z" class="g2_1"/><path fill-rule="evenodd" d="M228.2 88.8h-34.1v34.1h34.1zM200.5 146.6v55.5H256v-55.5zM430 205.1c-8.7-8.9-24.6-24.2-23.2-34.5 4.2-30.5-13-52.1-41.9-67.7-15.3-8.3-34.8-12.6-53.6-11.2v-.3H256v55.2h54.4v55.5H256v55.3h54.9v52.1h54.8s5.3-14.5 9.8-20.1c5.6-6.9 24.9-3.5 34.8-5.3 20.4-3.9 6-21.3 6.3-24.4.5-4.3 9.8-4.8 6.3-11.1-1.2-2.2-2.3-2.1-5.1-4.6 14.1-8.6-1.3-10.7 1.8-21 1.2-4.2 18.4-9.6 10.4-17.9z" class="g3_1"/></svg>